<svg width="16" height="16" viewBox="0 0 16 16" fill="none" xmlns="http://www.w3.org/2000/svg">
<path d="M11.6866 16C5.24261 16 0 10.7574 0 4.31348C0.00103863 3.25762 0.386416 2.23825 1.08415 1.44578C1.78188 0.6533 2.74424 0.141923 3.79147 0.00716587C4.00662 -0.0186879 4.22435 0.0258277 4.41209 0.134051C4.59982 0.242273 4.74746 0.408383 4.83291 0.607519L6.51002 4.5205C6.57527 4.67231 6.60187 4.83793 6.58745 5.00254C6.57303 5.16715 6.51803 5.32561 6.42738 5.46377L5.03868 7.58571C5.00724 7.63278 4.98849 7.68718 4.98425 7.74363C4.98001 7.80008 4.99042 7.85667 5.01447 7.90792C5.67533 9.25607 6.76845 10.3442 8.1196 10.9989C8.17115 11.0228 8.22801 11.0329 8.28463 11.0282C8.34124 11.0236 8.39569 11.0043 8.44265 10.9724L10.5326 9.57876C10.6711 9.48606 10.8306 9.42951 10.9966 9.41426C11.1626 9.39901 11.3297 9.42554 11.4828 9.49144L15.3927 11.1671C15.5917 11.2526 15.7578 11.4003 15.8659 11.5879C15.9741 11.7756 16.0187 11.9933 15.9929 12.2084C15.8581 13.2556 15.3468 14.218 14.5543 14.9158C13.7619 15.6135 12.7425 15.9989 11.6866 16ZM3.91501 0.667287C3.90173 0.66727 3.88846 0.668106 3.87528 0.669791C2.98925 0.78385 2.17506 1.21657 1.58479 1.88711C0.994526 2.55765 0.668566 3.42015 0.667806 4.31348C0.667806 10.3892 5.61082 15.3322 11.6866 15.3322C12.5799 15.3314 13.4425 15.0055 14.113 14.4152C14.7836 13.8249 15.2163 13.0107 15.3303 12.1247C15.3385 12.0534 15.3233 11.9813 15.2871 11.9194C15.2509 11.8574 15.1956 11.8088 15.1295 11.7809L11.2198 10.1053C11.1688 10.0834 11.113 10.0745 11.0577 10.0796C11.0023 10.0847 10.9491 10.1035 10.9029 10.1344L8.81312 11.528C8.66941 11.6242 8.50319 11.6815 8.33071 11.6941C8.15824 11.7068 7.98542 11.6745 7.82919 11.6004C6.3433 10.8802 5.14118 9.68353 4.41436 8.20092V8.201C4.33978 8.04569 4.30663 7.87374 4.31813 7.70183C4.32962 7.52992 4.38538 7.36391 4.47998 7.21992L5.86868 5.09815C5.8989 5.05208 5.91723 4.99923 5.92203 4.94435C5.92684 4.88946 5.91797 4.83424 5.89622 4.78361L4.21911 0.870633C4.19372 0.810796 4.15141 0.759673 4.09737 0.723537C4.04334 0.687401 3.97993 0.667822 3.91493 0.667204L3.91501 0.667287Z" fill="white"/>
</svg>
